<?xml version="1.0" standalone="no"?><!DOCTYPE svg PUBLIC "-//W3C//DTD SVG 1.1//EN" "http://www.w3.org/Graphics/SVG/1.1/DTD/svg11.dtd"><svg t="1715779779578" class="icon" viewBox="0 0 1024 1024" version="1.1" xmlns="http://www.w3.org/2000/svg" p-id="1453" xmlns:xlink="http://www.w3.org/1999/xlink" width="200" height="200"><path d="M639 661m-149 0a149 149 0 1 0 298 0 149 149 0 1 0-298 0Z" fill="#FF9F9F" p-id="1454"></path><path d="M514 829.01c-128.74 0-182.54-12.33-215.03-23.07-32.24-10.66-56.3-25.18-73.55-44.39C205.9 739.8 196 712.66 196 680.88c0-52.93 21.55-103.2 62.33-145.38 32.81-33.94 75.87-60.39 125.67-77.38-26.32-30.74-41-69.94-41-111.12 0-45.26 17.51-87.93 49.31-120.14 31.77-32.18 74.15-50.23 119.33-50.85 45.71-0.63 88.85 16.44 121.48 48.05 32.64 31.62 51.06 74.2 51.85 119.91 0.73 42.35-13.95 82.64-40.96 114.15 49.8 17 92.85 43.44 125.66 77.38C810.45 577.68 832 627.95 832 680.89c0 31.29-9.92 58.13-29.48 79.77-17.24 19.08-41.24 33.6-73.38 44.4-49.32 16.57-115.68 23.96-215.14 23.96z m0.03-603.01c-0.57 0-1.14 0-1.71 0.01-31.96 0.43-61.95 13.21-84.43 35.98C405.39 284.78 393 314.97 393 347c0 36.1 15.95 70.05 43.75 93.14 9.69 8.05 14 20.69 11.27 32.99-2.75 12.37-12.08 22.05-24.35 25.25C317.4 526.11 246 599.45 246 680.89c0 37.96 21.18 61.89 68.66 77.59 55.07 18.21 135.46 20.54 199.34 20.54 92.55 0 155.85-6.79 199.22-21.36 23.46-7.88 41.02-18.15 52.21-30.53 11.15-12.34 16.57-27.47 16.57-46.25 0-81.44-71.4-154.78-177.67-182.51-12.26-3.2-21.59-12.87-24.35-25.24-2.74-12.3 1.58-24.95 11.27-33 28.43-23.61 44.37-58.35 43.73-95.3-0.56-32.38-13.58-62.51-36.65-84.86-22.66-21.95-52.55-33.98-84.31-33.98z" fill="#333333" p-id="1455"></path><path d="M514 658c-13.81 0-25-11.19-25-25v-98c0-13.81 11.19-25 25-25s25 11.19 25 25v98c0 13.81-11.19 25-25 25z" fill="#333333" p-id="1456"></path></svg>