<?xml version="1.0" standalone="no"?><!DOCTYPE svg PUBLIC "-//W3C//DTD SVG 1.1//EN" "http://www.w3.org/Graphics/SVG/1.1/DTD/svg11.dtd"><svg t="1715779859915" class="icon" viewBox="0 0 1024 1024" version="1.1" xmlns="http://www.w3.org/2000/svg" p-id="1762" xmlns:xlink="http://www.w3.org/1999/xlink" width="200" height="200"><path d="M597.5 592.5m-174.5 0a174.5 174.5 0 1 0 349 0 174.5 174.5 0 1 0-349 0Z" fill="#FF9F9F" p-id="1763"></path><path d="M335 526c-13.81 0-25-11.19-25-25 0-111.38 90.62-202 202-202 13.81 0 25 11.19 25 25s-11.19 25-25 25c-83.81 0-152 68.19-152 152 0 13.81-11.19 25-25 25z" fill="#333333" p-id="1764"></path><path d="M514.16 815.08c-81.51 0-161.88-31.73-222.19-92.05C232.66 663.72 200 584.87 200 501s32.66-162.72 91.97-222.03c59.26-59.26 138.11-91.9 222.03-91.9s162.77 32.64 222.03 91.9c55.29 55.29 87.82 128.72 91.6 206.76 3.75 77.49-21.03 153.18-69.78 213.12-2.72 3.35-2.46 8.18 0.6 11.25l55.22 55.22c9.76 9.76 9.76 25.59 0 35.36-9.76 9.76-25.59 9.76-35.36 0l-55.22-55.22c-21.25-21.25-22.99-54.85-4.04-78.15 40.96-50.37 61.78-114 58.63-179.16-3.18-65.6-30.53-127.34-77.01-173.82-49.82-49.82-116.12-77.26-186.68-77.26s-136.86 27.44-186.68 77.26c-49.86 49.86-77.32 116.16-77.32 186.68s27.46 136.81 77.32 186.68c79.92 79.92 201.73 100.16 303.1 50.35 12.39-6.09 27.37-0.98 33.46 11.41s0.98 27.37-11.41 33.46c-44.06 21.65-91.38 32.17-138.31 32.17z" fill="#333333" p-id="1765"></path></svg>