<?xml version="1.0" standalone="no"?><!DOCTYPE svg PUBLIC "-//W3C//DTD SVG 1.1//EN" "http://www.w3.org/Graphics/SVG/1.1/DTD/svg11.dtd"><svg t="1729863448480" class="icon" viewBox="0 0 1024 1024" version="1.1" xmlns="http://www.w3.org/2000/svg" p-id="1603" xmlns:xlink="http://www.w3.org/1999/xlink" width="200" height="200"><path d="M581.5 583.5m-174.5 0a174.5 174.5 0 1 0 349 0 174.5 174.5 0 1 0-349 0Z" fill="#FF9F9F" p-id="1604"></path><path d="M268.97 652.72c-9.73 0-18.98-5.72-23.02-15.24-29.85-70.32-30.52-148.06-1.9-218.89 28.62-70.83 83.11-126.27 153.43-156.12s148.06-30.52 218.89-1.9C687.2 289.19 742.64 343.68 772.49 414c5.39 12.71-0.54 27.39-13.25 32.78-12.71 5.39-27.39-0.54-32.78-13.25-24.63-58.03-70.38-102.99-128.83-126.61-58.45-23.62-122.59-23.06-180.62 1.57S314.02 378.87 290.4 437.31c-23.62 58.45-23.06 122.59 1.57 180.62 5.39 12.71-0.54 27.39-13.25 32.78-3.19 1.35-6.5 1.99-9.76 1.99zM509.25 811.83c-33.12 0-66.28-5.79-98.1-17.41-12.97-4.74-19.64-19.09-14.91-32.06 4.74-12.97 19.09-19.64 32.06-14.91 56.36 20.58 117.84 19 173.11-4.45 51.62-21.91 93.84-61.56 118.86-111.65 6.17-12.35 21.19-17.36 33.54-11.19 12.35 6.17 17.36 21.19 11.19 33.54-30.34 60.71-81.5 108.77-144.06 135.32-35.78 15.18-73.72 22.81-111.7 22.81z" fill="#333333" p-id="1605"></path><path d="M266.42 735.11c-49.72 0-100.02-10.79-116.85-50.44-7.44-17.52-6.7-37.29 2.19-58.74 5.29-12.76 19.91-18.81 32.67-13.52 12.76 5.29 18.81 19.91 13.52 32.67-2.45 5.91-4.84 14.19-2.35 20.06 4.3 10.14 31.43 25.37 105.84 18.17 70.09-6.78 157.29-31.14 245.53-68.59s166.34-83.24 219.91-128.95c56.87-48.52 64.77-78.62 60.46-88.76-4.3-10.14-31.43-25.37-105.84-18.17-13.74 1.33-25.96-8.73-27.29-22.48-1.33-13.74 8.73-25.96 22.48-27.29 59.66-5.77 135.27-2.06 156.69 48.41 21.42 50.47-28.44 107.43-74.04 146.33-57.34 48.92-140.03 97.55-232.83 136.93s-185.22 65.07-260.25 72.33c-12.78 1.24-26.29 2.04-39.84 2.04z" fill="#333333" p-id="1606"></path></svg>