<?xml version="1.0" standalone="no"?><!DOCTYPE svg PUBLIC "-//W3C//DTD SVG 1.1//EN" "http://www.w3.org/Graphics/SVG/1.1/DTD/svg11.dtd"><svg t="1729862419742" class="icon" viewBox="0 0 1024 1024" version="1.1" xmlns="http://www.w3.org/2000/svg" p-id="1148" xmlns:xlink="http://www.w3.org/1999/xlink" width="200" height="200"><path d="M656.98 406.18m-200.5 0a200.5 200.5 0 1 0 401 0 200.5 200.5 0 1 0-401 0Z" fill="#FF9F9F" p-id="1149"></path><path d="M502.68 851.08c-25.29 0-49.54-9.36-68.28-26.35-41.44-37.62-143.46-130.89-195.83-184.6-9.64-9.89-9.44-25.71 0.45-35.35 9.89-9.64 25.71-9.44 35.35 0.45C325.78 657.95 426.91 750.4 468 787.7c19.77 17.93 49.59 17.93 69.36 0l0.19-0.17C715.3 626.18 832.72 519.59 832.72 396.68c0-46.3-17.49-89.28-49.24-121.04-31.75-31.75-74.74-49.24-121.04-49.24-37.75 0-76.01 12.47-107.74 35.11-15.56 11.1-33.79 16.65-52.03 16.65-18.24 0-36.46-5.55-52.03-16.65-31.73-22.64-69.99-35.11-107.74-35.11-46.3 0-89.28 17.49-121.04 49.24-31.75 31.75-49.24 74.74-49.24 121.04 0 13.85 1.49 27.82 4.43 41.51 2.63 12.24 7.08 24.26 13.22 35.73a35.867 35.867 0 0 0 31.67 18.96h140c2.94 0 5.59-1.63 6.91-4.27l36.12-72.05c6.75-13.48 20.28-21.82 35.34-21.82h0.23c15.15 0.09 28.69 8.6 35.32 22.22l70.41 144.56L576.26 517a55.828 55.828 0 0 1 46.37-24.67h56.43c13.81 0 25 11.19 25 25s-11.19 25-25 25h-56.43c-1.97 0-3.8 0.97-4.9 2.61l-40.13 59.57c-7.87 11.68-21.49 18.33-35.55 17.35-14.05-0.98-26.62-9.46-32.79-22.13L440.18 457.9l-26.63 53.12c-9.85 19.65-29.63 31.86-51.61 31.86H221.96a85.793 85.793 0 0 1-75.74-45.35c-8.35-15.59-14.42-32.02-18.03-48.83-3.68-17.14-5.55-34.64-5.55-52.02 0-123.52 96.76-220.28 220.28-220.28 48.08 0 96.65 15.77 136.79 44.41 13.75 9.81 32.22 9.81 45.97 0 40.13-28.64 88.71-44.41 136.79-44.41 123.52 0 220.28 96.76 220.28 220.28 0 36.28-7.81 71.4-23.88 107.36-14.42 32.27-35.66 65.37-64.92 101.18-54.18 66.3-132.3 137.22-222.77 219.34l-0.2 0.18c-18.74 17-42.99 26.36-68.28 26.36z" fill="#333333" p-id="1150"></path></svg>