<?xml version="1.0" standalone="no"?><!DOCTYPE svg PUBLIC "-//W3C//DTD SVG 1.1//EN" "http://www.w3.org/Graphics/SVG/1.1/DTD/svg11.dtd"><svg t="1715779891960" class="icon" viewBox="0 0 1024 1024" version="1.1" xmlns="http://www.w3.org/2000/svg" p-id="1917" xmlns:xlink="http://www.w3.org/1999/xlink" width="200" height="200"><path d="M474 677m-155 0a155 155 0 1 0 310 0 155 155 0 1 0-310 0Z" fill="#FF9F9F" p-id="1918"></path><path d="M715.79 383H450c-13.81 0-25-11.19-25-25s11.19-25 25-25h265.79c13.81 0 25 11.19 25 25s-11.19 25-25 25zM614 500H450c-13.81 0-25-11.19-25-25s11.19-25 25-25h164c13.81 0 25 11.19 25 25s-11.19 25-25 25z" fill="#333333" p-id="1919"></path><path d="M752.87 844H413.86c-59.07 0-107.13-48.06-107.13-107.13V279.72c0-26.86-21.86-48.72-48.72-48.72s-48.72 21.86-48.72 48.72v102.57c0 14.73 11.98 26.71 26.71 26.71 13.81 0 25 11.19 25 25s-11.19 25-25 25c-42.3 0-76.71-34.41-76.71-76.71V279.72c0-54.43 44.29-98.72 98.72-98.72s98.72 44.29 98.72 98.72v457.15c0 31.5 25.63 57.13 57.13 57.13h339.01c31.5 0 57.13-25.63 57.13-57.13V278.13c0-31.5-25.63-57.13-57.13-57.13h-340c-13.81 0-25-11.19-25-25s11.19-25 25-25h340C811.94 171 860 219.06 860 278.13v458.74C860 795.94 811.94 844 752.87 844z" fill="#333333" p-id="1920"></path></svg>