<?xml version="1.0" standalone="no"?><!DOCTYPE svg PUBLIC "-//W3C//DTD SVG 1.1//EN" "http://www.w3.org/Graphics/SVG/1.1/DTD/svg11.dtd"><svg t="1729863120314" class="icon" viewBox="0 0 1024 1024" version="1.1" xmlns="http://www.w3.org/2000/svg" p-id="1298" xmlns:xlink="http://www.w3.org/1999/xlink" width="200" height="200"><path d="M405.45 705.56m-152.14 0a152.14 152.14 0 1 0 304.28 0 152.14 152.14 0 1 0-304.28 0Z" fill="#FF9F9F" p-id="1299"></path><path d="M528.59 727.53c-13.81 0-25-11.19-25-25v-68c0-13.81 11.19-25 25-25s25 11.19 25 25v68c0 13.81-11.19 25-25 25z" fill="#333333" p-id="1300"></path><path d="M707.19 865.53H349.98c-58.67 0-106.4-47.73-106.4-106.4V543.92c0-58.67 47.73-106.4 106.4-106.4h245.6c30.33 0 55-24.67 55-55v-50c0-67.27-54.73-122-122-122s-122 54.73-122 122v30c0 13.81-11.19 25-25 25s-25-11.19-25-25v-30c0-94.84 77.16-172 172-172s172 77.16 172 172v50c0 57.9-47.1 105-105 105h-245.6c-31.1 0-56.4 25.3-56.4 56.4v215.21c0 31.1 25.3 56.4 56.4 56.4h357.21c31.1 0 56.4-25.3 56.4-56.4v-216.6c0-13.81 11.19-25 25-25s25 11.19 25 25v216.6c0 58.67-47.73 106.4-106.4 106.4z" fill="#333333" p-id="1301"></path></svg>